<?xml version="1.0" encoding="utf-8"?>
<!-- Generator: Adobe Illustrator 16.0.0, SVG Export Plug-In . SVG Version: 6.00 Build 0)  -->
<!DOCTYPE svg PUBLIC "-//W3C//DTD SVG 1.1//EN" "http://www.w3.org/Graphics/SVG/1.1/DTD/svg11.dtd">
<svg version="1.1" id="Capa_1" xmlns="http://www.w3.org/2000/svg" xmlns:xlink="http://www.w3.org/1999/xlink" x="0px" y="0px"
	 width="81.894px" height="37.691px" viewBox="0 0 81.894 37.691" enable-background="new 0 0 81.894 37.691" xml:space="preserve">
<path fill="#27385F" d="M31.805,33.352c0,0-0.193-0.221-0.525-0.335c-3.66-1.25-6.361-4.866-7.571-6.769
	c-0.003-0.006-0.003-0.012,0-0.017c1.267-2.089,1.921-4.544,1.853-7.032c-0.001-0.055-0.003-0.113-0.005-0.172
	c0.009-0.265,0.013-0.53,0.005-0.796c-0.074-2.764-0.579-9.551-3.65-12.924c-0.611-0.706-1.684-1.292-2.957-1.024L18.95,4.237
	c0.011-0.076,0.022-0.152,0.028-0.23c0.057-0.625-0.112-1.939-1.103-2.901c-0.936-0.908-2.316-1.26-4.102-1.045
	c-3.551,0.428-6.201,3.058-6.533,3.401C5.291,5.203,4.121,7.294,3.181,8.976l-0.113,0.2c-2.439,4.354-2.938,8.908-3.039,10.662
	C0,20.33-0.004,20.82,0.007,21.306c-0.083,2.891,0.552,5.732,1.734,7.684c1.499,2.479,4.097,3.729,7.711,3.695
	c3.066-0.022,5.619-0.418,7.767-1.207c0.007-0.003,0.015,0,0.019,0.006c0.586,1.042,1.875,3.11,3.708,4.826
	c0.904,0.848,2.462,1.382,4.363,1.381c1.825,0,3.936-0.533,6.12-1.712c0.108-0.059,0.239-0.162,0.341-0.251l0.001-0.001
	c0.005-0.004,0.009-0.008,0.013-0.012c0.022-0.019,0.042-0.036,0.06-0.054c0.314-0.286,0.498-0.633,0.521-1.106
	C32.392,34.019,32.026,33.573,31.805,33.352 M17.184,13.78c-0.027,0.483-0.096,0.981-0.224,1.493
	c-0.012,0.003-0.015,0.004-0.027,0.007c-0.316-0.333-0.637-0.582-1.005-0.752c-1.004-0.465-2.025-0.34-3.036,0.369l-0.047,0.033
	c-0.052,0.035-0.214,0.144-0.286,0.191l-0.045,0.03c-0.701,0.456-1.148,1.02-1.35,1.677c-0.162,0.482-0.353,1.428,0.009,2.682
	c0.003,0.011-0.006,0.022-0.017,0.021c-0.808-0.093-1.67-0.42-2.169-1.297c-0.37-0.649-0.592-1.422-0.68-2.256
	c0-0.253-0.001-0.504-0.001-0.758c0.21-2.205,1.196-4.541,2.767-6.081c0.967-0.948,2.12-1.272,3.009-1.272
	c0.219,0,0.422,0.02,0.602,0.055c0.547,0.105,1.104,0.097,1.625-0.01c0.004,0.075,0.01,0.152,0.017,0.231
	c-0.055,0.519-0.02,1.128,0.148,1.847c0.047,0.202,0.1,0.413,0.154,0.633c0.235,0.944,0.496,2.002,0.556,3.154V13.78z"/>
<path fill="#24376A" d="M72.994,25.998c-1.768,0-4.393-0.911-5.632-1.487c-0.208-0.097-0.433-0.126-0.661-0.084
	c-0.29,0.05-0.528,0.246-0.708,0.478c-0.154,0.199-0.36,0.357-0.612,0.472c-0.468,0.213-1.338,0.342-2.585,0.385
	c-0.283,0.01-0.532,0.014-0.752,0.014c-1.265,0-1.519-0.151-1.702-0.261c-0.139-0.083-0.26-0.191-0.361-0.321
	c-0.151-0.196-0.375-0.553-0.795-1.27c-0.098-0.166-0.268-0.267-0.454-0.267h-0.066l-0.078,0.021c-0.214,0.052-0.38,0.254-0.391,0.5
	c-0.03,0.612-0.446,1.129-1.012,1.255c-0.541,0.121-1.695,0.171-2.595,0.177h-0.086c-1.08,0-1.649-0.189-2.025-0.316l-0.206-0.067
	l-0.119,0.021c-0.472,0.087-1.177,0.162-2.219,0.241c-1.132,0.085-1.734,0.12-2.082,0.12c-0.308,0-0.378-0.024-0.505-0.068
	c-0.641-0.224-0.775-0.461-1.217-1.819c0,0-0.021-0.106-0.121-0.231c-0.082-0.102-0.191-0.143-0.191-0.143
	c-0.135-0.046-0.303-0.057-0.42-0.057c-0.137,0-0.348,0.013-0.575,0.077c-0.286,0.081-0.474,0.209-0.559,0.382l-0.019,0.038
	l-0.012,0.041c-0.345,1.192-0.555,1.328-0.759,1.46c-0.034,0.022-0.06,0.039-0.085,0.057c-0.226,0.157-0.34,0.236-0.949,0.236
	c-0.452,0-1.128-0.047-2.069-0.122c-2.391-0.192-2.617-0.311-2.837-0.425c-0.043-0.022-0.086-0.05-0.132-0.083l-0.221-0.158
	l-0.25,0.104c-0.985,0.412-2.213,0.833-3.851,0.833c-1.065,0-2.805-0.049-3.806-0.094c-2.34-0.106-2.829-0.152-3.179-0.445
	c-0.458-0.383-0.493-0.798-0.522-1.625c-0.014-0.393-0.028-0.947-0.042-1.611c-0.026-1.214-0.054-2.922-0.077-4.811
	c-0.089-6.97-0.071-7.251,0.042-7.566c0.284-0.79,0.945-0.908,1.716-0.974c0.34-0.029,0.81-0.056,1.398-0.081
	c1.007-0.042,2.404-0.063,2.615-0.063c5.638,0,7.192,2.257,7.616,3.602c0.093,0.296,0.349,0.489,0.652,0.494l0.052,0.001l0.051-0.01
	c0.367-0.054,0.513-0.316,0.565-0.466c0.966-2.756,1.368-3.17,1.424-3.218c0.003-0.002,0.005-0.004,0.008-0.006
	c0.314-0.219,0.446-0.302,3.345-0.376c0.691-0.017,1.285-0.026,1.766-0.026c1.125,0,1.354,0.049,1.429,0.064
	c0.052,0.011,0.104,0.026,0.154,0.043c0.569,0.198,0.729,0.591,0.985,1.325c0.114,0.329,0.275,0.799,0.468,1.372
	c0.07,0.211,0.163,0.469,0.271,0.774c0.092,0.26,0.177,0.552,0.305,0.862c0.024,0.063,0.076,0.123,0.101,0.144
	c0.1,0.084,0.197,0.136,0.455,0.115c0.247-0.02,0.341-0.19,0.341-0.19c0.07-0.113,0.07-0.226,0.07-0.226
	c0.026-1.978,0.07-2.68,0.103-2.918c0.067-0.491,0.381-1.125,1.496-1.348c0.762-0.151,1.926-0.176,2.391-0.18
	c0.148-0.001,0.28-0.002,0.408-0.002c1.246,0,1.751,0.109,2.107,0.724c0.063,0.106,0.3,0.497,0.643,1.074
	c0.122,0.206,0.333,0.329,0.564,0.329c0.047,0,0.095-0.005,0.142-0.016c0.285-0.06,0.492-0.296,0.526-0.598
	c0.063-0.578,0.467-1.047,1.003-1.167c0.299-0.068,0.951-0.148,2.362-0.148l0.291,0.001c2.068,0.018,2.311,0.137,2.626,0.383
	c0.255,0.2,0.346,0.347,0.409,0.521c0.087,0.234,0.271,0.408,0.508,0.476c0.068,0.021,0.144,0.032,0.219,0.032
	c0.169,0,0.331-0.055,0.468-0.157c1.28-0.957,3.345-1.552,5.386-1.552c5.191,0,8.959,3.841,8.959,9.131
	c0,2.156-0.839,4.311-2.303,5.907C78.434,24.492,76.35,25.998,72.994,25.998 M73.373,14.863c-1.032,0-1.699,0.843-1.699,2.146
	c0,1.214,0.698,2.095,1.659,2.095c1.045,0,1.669-0.803,1.669-2.146C75.002,15.014,73.755,14.863,73.373,14.863"/>
<path fill="#C03535" d="M35.84,16.579c1.318,0.274,2.557,1.516,2.557,3.644c0,2.844-2.191,4.086-5.841,4.086
	c-1.988,0-5.618-0.168-5.72-0.253c-0.101-0.084-0.263-14.196-0.202-14.365c0.06-0.168,3.894-0.253,4.299-0.253
	c3.225,0,6.47,0.717,6.47,4.002c0,1.707-0.629,2.423-1.563,3.013V16.579z M30.932,15.062c0.142,0.021,0.264,0.021,0.406,0.021
	c1.095,0,1.683-0.4,1.683-1.158c0-0.78-0.953-1.011-1.602-1.011c-0.162,0-0.345,0.021-0.467,0.042
	C30.932,13.272,30.932,15.062,30.932,15.062 M31.135,20.644c0.304,0.042,0.588,0.063,0.832,0.063c1.257,0,1.724-0.506,1.724-1.222
	c0-0.843-0.71-1.2-1.826-1.2c-0.223,0-0.466,0.021-0.709,0.043C31.135,18.643,31.135,20.644,31.135,20.644"/>
<path fill="#7CAD51" d="M47.044,21.52c-0.218,0.021-3.002-0.041-3.42-0.061c-0.101,0.453-0.52,2.526-0.638,2.608
	c-0.12,0.083-4.297-0.227-4.613-0.393c0.356-1.404,3.898-13.72,4.078-13.844c0.179-0.124,5.13-0.248,5.627-0.145
	c0.06,0.021,3.909,11.284,4.365,13.989c-0.536,0.247-4.514,0.456-4.572,0.434C47.811,24.088,47.184,22.078,47.044,21.52
	 M45.354,13.694c-0.277,1.032-0.935,3.717-1.133,4.336c0.358-0.021,1.749-0.021,2.405,0c-0.238-0.743-0.875-3.366-1.153-4.357
	C45.434,13.673,45.394,13.694,45.354,13.694"/>
<path fill="#CE7631" d="M61.534,24.123c-0.417-0.537-2.307-3.985-4.156-6.96c0,2.686,0.14,5.516,0.079,6.732
	c-0.835,0.187-4.275,0.207-4.295,0c-0.119-0.847-0.178-12.989,0-14.104c0.06-0.434,3.997-0.434,4.077-0.289
	c0.278,0.454,2.704,4.439,4.255,7.579c0.02-3.036-0.099-6.464,0-7.353c0.835-0.186,4.116-0.124,4.275,0
	c0.159,0.124,0.02,13.279-0.159,14.064C65.511,24.227,61.813,24.288,61.534,24.123"/>
<path fill="#F5E3BD" d="M80.626,17.101c0,3.676-2.267,7.331-7.079,7.331c-4.314,0-7.119-2.953-7.119-7.785
	c0-3.718,2.388-7.332,7.06-7.332C77.764,9.315,80.626,12.268,80.626,17.101 M73.527,13.446c-1.571,0-2.545,1.28-2.545,3.448
	c0,1.962,1.014,3.346,2.465,3.346c1.631,0,2.486-1.26,2.486-3.448C75.934,14.354,74.86,13.446,73.527,13.446"/>
<path fill="#FFFFFF" d="M54.337,30.367c0,1.354-0.918,2.252-2.361,2.252h-1.97v-4.489h1.97
	C53.419,28.129,54.337,29.027,54.337,30.367 M53.232,30.374c0-0.85-0.525-1.359-1.299-1.359h-0.85v2.72h0.85
	C52.707,31.734,53.232,31.223,53.232,30.374"/>
<path fill="#FFFFFF" d="M55.497,31.155c0.062,0.518,0.49,0.758,0.974,0.758c0.366,0,0.732-0.129,0.96-0.379h0.076l0.483,0.464v0.075
	c-0.387,0.457-1.022,0.629-1.567,0.629c-1.037,0-1.962-0.621-1.962-1.803c0-1.057,0.746-1.816,1.858-1.816
	c1.098,0,1.83,0.746,1.83,1.789c0,0.103-0.007,0.192-0.021,0.283H55.497z M55.49,30.601h1.637c-0.041-0.49-0.366-0.767-0.814-0.767
	C55.856,29.834,55.525,30.125,55.49,30.601"/>
<path fill="#FFFFFF" d="M59.544,28.833v2.681c0,0.158,0.042,0.256,0.159,0.256c0.042,0,0.076-0.015,0.097-0.036l0.069,0.036
	l0.124,0.71l-0.034,0.077c-0.152,0.09-0.346,0.144-0.567,0.144c-0.58,0-0.918-0.365-0.918-1.008v-2.624
	c0-0.159-0.042-0.256-0.159-0.256c-0.042,0-0.076,0.014-0.097,0.035l-0.069-0.035l-0.125-0.711l0.035-0.077
	c0.152-0.089,0.346-0.145,0.567-0.145C59.206,27.88,59.544,28.191,59.544,28.833"/>
<path fill="#FFFFFF" d="M60.104,28.122c0-0.365,0.29-0.662,0.656-0.662c0.365,0,0.662,0.297,0.662,0.662
	c0,0.366-0.297,0.656-0.662,0.656C60.394,28.778,60.104,28.488,60.104,28.122 M60.228,31.693v-2.528h1.063v2.349
	c0,0.159,0.041,0.256,0.159,0.256c0.041,0,0.076-0.015,0.097-0.035l0.068,0.035l0.132,0.711l-0.042,0.076
	c-0.151,0.09-0.332,0.145-0.552,0.145C60.565,32.701,60.228,32.336,60.228,31.693"/>
<path fill="#FFFFFF" d="M61.788,30.892c0-1.043,0.787-1.81,1.94-1.81c0.546,0,1.071,0.242,1.396,0.607v0.076l-0.594,0.545h-0.083
	c-0.173-0.199-0.421-0.316-0.719-0.316c-0.503,0-0.856,0.373-0.856,0.897s0.347,0.897,0.856,0.897c0.305,0,0.546-0.11,0.719-0.317
	h0.083l0.594,0.545v0.076c-0.324,0.366-0.85,0.608-1.396,0.608C62.575,32.702,61.788,31.935,61.788,30.892"/>
<path fill="#FFFFFF" d="M65.269,28.122c0-0.365,0.291-0.662,0.657-0.662c0.364,0,0.662,0.297,0.662,0.662
	c0,0.366-0.298,0.656-0.662,0.656C65.56,28.778,65.269,28.488,65.269,28.122 M65.394,31.693v-2.528h1.063v2.349
	c0,0.159,0.042,0.256,0.159,0.256c0.042,0,0.076-0.015,0.098-0.035l0.068,0.035l0.132,0.711l-0.042,0.076
	c-0.151,0.09-0.332,0.145-0.553,0.145C65.731,32.701,65.394,32.336,65.394,31.693"/>
<path fill="#FFFFFF" d="M66.954,30.892c0-1.043,0.787-1.81,1.941-1.81c1.146,0,1.939,0.767,1.939,1.81s-0.794,1.81-1.939,1.81
	C67.741,32.702,66.954,31.935,66.954,30.892 M69.751,30.892c0-0.524-0.353-0.897-0.855-0.897c-0.505,0-0.857,0.373-0.857,0.897
	s0.353,0.897,0.857,0.897C69.398,31.79,69.751,31.417,69.751,30.892"/>
<path fill="#FFFFFF" d="M72.479,29.083c0.615,0,1.146,0.214,1.438,0.573v0.075l-0.47,0.415H73.37
	c-0.242-0.229-0.532-0.339-0.829-0.339c-0.29,0-0.436,0.11-0.436,0.27s0.152,0.229,0.539,0.373c0.519,0.193,1.354,0.4,1.354,1.174
	c0,0.677-0.622,1.077-1.485,1.077c-0.698,0-1.271-0.262-1.603-0.663v-0.075l0.483-0.436h0.076c0.207,0.235,0.587,0.45,0.973,0.45
	c0.299,0,0.484-0.131,0.484-0.326c0-0.234-0.256-0.317-0.594-0.435c-0.587-0.193-1.278-0.407-1.278-1.098
	C71.056,29.49,71.623,29.083,72.479,29.083"/>
<path fill="#FFFFFF" d="M74.13,30.892c0-1.043,0.787-1.81,1.94-1.81c1.146,0,1.94,0.767,1.94,1.81s-0.794,1.81-1.94,1.81
	C74.917,32.702,74.13,31.935,74.13,30.892 M76.927,30.892c0-0.524-0.354-0.897-0.856-0.897c-0.505,0-0.856,0.373-0.856,0.897
	s0.352,0.897,0.856,0.897C76.573,31.79,76.927,31.417,76.927,30.892"/>
<path fill="#FFFFFF" d="M79.537,32.067c0,0.365-0.29,0.662-0.656,0.662s-0.663-0.297-0.663-0.662c0-0.367,0.297-0.657,0.663-0.657
	S79.537,31.7,79.537,32.067 M78.418,28.129h0.926l0.063,0.063l-0.111,2.838l-0.069,0.063h-0.698l-0.062-0.063l-0.117-2.846
	L78.418,28.129z"/>
<path fill-rule="evenodd" clip-rule="evenodd" fill="#E9C739" d="M21.187,5.95c2.708,2.962,3.32,9.058,3.408,12.309
	c0.068,2.53-0.684,5.222-2.336,7.429l-0.007,0.007c3.388,6.143,7.701,7.904,8.789,8.265c0.096,0.031,0.105,0.164,0.017,0.212
	c-4.317,2.354-8.106,1.724-9.45,0.467c-2.411-2.258-3.855-5.211-3.855-5.211l-0.092-0.136c-2.147,0.938-4.842,1.434-8.216,1.459
	c-2.879,0.021-5.418-0.821-6.876-3.229c-1.133-1.873-1.743-4.688-1.574-7.626c0.168-2.909,1.009-6.84,2.918-10.246
	C4.87,7.938,5.991,5.866,7.908,4.162C7.91,4.16,7.911,4.16,7.912,4.158c0.058-0.062,2.576-2.726,5.976-3.136
	c4.015-0.483,4.168,2.425,4.126,2.898c-0.16,1.773-1.823,2.341-3.146,2.085c-1.141-0.221-2.984,0.016-4.474,1.476
	c-2.873,2.817-4.062,8.048-2.25,11.232c1.3,2.283,4.247,1.823,4.979,1.668c0.08-0.017,0.116-0.111,0.07-0.18
	c-0.739-1.081-1.15-1.768-1.186-2.415c-0.064-1.184,0.819-1.678,1.091-1.86c0.072-0.049,0.237-0.161,0.29-0.197
	c0.271-0.183,1.056-0.822,2.132-0.324c0.519,0.24,0.955,0.763,1.554,1.625c0.117,0.168,0.226,0.152,0.226,0.152
	c1.588-3.395,0.594-6.34,0.115-8.38c-0.491-2.094,0.354-2.936,1.007-3.294C19.652,4.833,20.647,5.32,21.187,5.95"/>
</svg>
