<?xml version="1.0" encoding="utf-8"?>
<!-- Generator: Adobe Illustrator 16.0.0, SVG Export Plug-In . SVG Version: 6.00 Build 0)  -->
<!DOCTYPE svg PUBLIC "-//W3C//DTD SVG 1.1//EN" "http://www.w3.org/Graphics/SVG/1.1/DTD/svg11.dtd">
<svg version="1.1" id="Capa_1" xmlns="http://www.w3.org/2000/svg" xmlns:xlink="http://www.w3.org/1999/xlink" x="0px" y="0px"
	 width="12.5px" height="11.542px" viewBox="0 0 12.5 11.542" enable-background="new 0 0 12.5 11.542" xml:space="preserve">
<path fill="#FFFFFF" d="M10.792,6.99H4.225c-0.27,0-0.507-0.183-0.575-0.444L2.304,1.361H0.77c-0.328,0-0.594-0.266-0.594-0.594
	S0.441,0.174,0.77,0.174h1.993c0.271,0,0.507,0.182,0.575,0.444l0.212,0.818c0.029-0.004,0.059-0.007,0.088-0.007h8.093
	c0.181,0,0.349,0.082,0.462,0.221c0.112,0.14,0.156,0.322,0.119,0.498l-0.939,4.373C11.314,6.795,11.072,6.99,10.792,6.99
	 M4.684,5.803h5.629l0.683-3.186H3.856L4.684,5.803z"/>
<path fill="#FFFFFF" d="M11.17,9.517H4.085c-0.66,0-1.257-0.339-1.595-0.906S2.138,7.357,2.451,6.776
	c0.325-0.601,0.951-0.974,1.634-0.974h0.909c0.328,0,0.594,0.266,0.594,0.594S5.322,6.99,4.994,6.99H4.085
	c-0.246,0-0.472,0.135-0.589,0.352C3.333,7.643,3.451,7.904,3.51,8.002C3.568,8.101,3.742,8.33,4.085,8.33h7.085
	c0.327,0,0.594,0.265,0.594,0.592C11.764,9.25,11.497,9.517,11.17,9.517"/>
<path fill="#FFFFFF" d="M4.329,11.335H4.176c-0.328,0-0.594-0.267-0.594-0.595c0-0.327,0.266-0.592,0.594-0.592h0.153
	c0.328,0,0.594,0.265,0.594,0.592C4.923,11.068,4.657,11.335,4.329,11.335"/>
<path fill="#FFFFFF" d="M10.172,11.335h-0.153c-0.328,0-0.594-0.267-0.594-0.595c0-0.327,0.266-0.592,0.594-0.592h0.153
	c0.328,0,0.594,0.265,0.594,0.592C10.766,11.068,10.5,11.335,10.172,11.335"/>
</svg>
