<?xml version="1.0" encoding="utf-8"?>
<!-- Generator: Adobe Illustrator 16.0.0, SVG Export Plug-In . SVG Version: 6.00 Build 0)  -->
<!DOCTYPE svg PUBLIC "-//W3C//DTD SVG 1.1//EN" "http://www.w3.org/Graphics/SVG/1.1/DTD/svg11.dtd">
<svg version="1.1" id="Capa_1" xmlns="http://www.w3.org/2000/svg" xmlns:xlink="http://www.w3.org/1999/xlink" x="0px" y="0px"
	 width="19.141px" height="17.09px" viewBox="0 0 19.141 17.09" enable-background="new 0 0 19.141 17.09" xml:space="preserve">
<path fill="none" stroke="#FFFFFF" stroke-linecap="round" stroke-linejoin="round" stroke-miterlimit="10" d="M18.111,14.732H4.614
	c-1.181,0-2.138-0.957-2.138-2.14c0-1.18,0.957-2.137,2.138-2.137h11.862L18.5,3.029H3.9"/>
<polyline fill="none" stroke="#FFFFFF" stroke-linecap="round" stroke-linejoin="round" stroke-miterlimit="10" points="
	6.308,10.457 2.979,0.621 0.52,0.621 "/>
<path fill="#FFFFFF" d="M15.849,16.432c0-0.361,0.294-0.656,0.657-0.656c0.364,0,0.658,0.295,0.658,0.656
	c0,0.363-0.294,0.658-0.658,0.658C16.143,17.09,15.849,16.795,15.849,16.432"/>
<path fill="#FFFFFF" d="M5.155,16.432c0-0.361,0.296-0.656,0.658-0.656c0.363,0,0.658,0.295,0.658,0.656
	c0,0.363-0.295,0.658-0.658,0.658C5.45,17.09,5.155,16.795,5.155,16.432"/>
</svg>
