<?xml version="1.0" encoding="utf-8"?>
<!-- Generator: Adobe Illustrator 16.0.0, SVG Export Plug-In . SVG Version: 6.00 Build 0)  -->
<!DOCTYPE svg PUBLIC "-//W3C//DTD SVG 1.1//EN" "http://www.w3.org/Graphics/SVG/1.1/DTD/svg11.dtd">
<svg version="1.1" id="Capa_1" xmlns="http://www.w3.org/2000/svg" xmlns:xlink="http://www.w3.org/1999/xlink" x="0px" y="0px"
	 width="9.942px" height="12.874px" viewBox="0 0 9.942 12.874" enable-background="new 0 0 9.942 12.874" xml:space="preserve">
<path fill="#FFFFFF" d="M4.328,12.545L0.949,7.891c-1.437-1.978-1.222-4.707,0.507-6.436c1.941-1.941,5.087-1.941,7.03,0
	c1.728,1.729,1.943,4.458,0.507,6.436l-3.379,4.654C5.296,12.983,4.645,12.983,4.328,12.545"/>
<g>
	<g>
		<defs>
			<rect id="SVGID_1_" x="3.108" y="3.104" width="3.815" height="3.82"/>
		</defs>
		<clipPath id="SVGID_2_">
			<use xlink:href="#SVGID_1_"  overflow="visible"/>
		</clipPath>
		<path clip-path="url(#SVGID_2_)" fill="#45A197" d="M6.923,5.015c0,1.054-0.854,1.908-1.908,1.908
			c-1.053,0-1.907-0.854-1.907-1.908c0-1.053,0.854-1.907,1.907-1.907C6.069,3.108,6.923,3.962,6.923,5.015"/>
	</g>
</g>
</svg>
