<?xml version="1.0" encoding="utf-8"?>
<!-- Generator: Adobe Illustrator 16.0.0, SVG Export Plug-In . SVG Version: 6.00 Build 0)  -->
<!DOCTYPE svg PUBLIC "-//W3C//DTD SVG 1.1//EN" "http://www.w3.org/Graphics/SVG/1.1/DTD/svg11.dtd">
<svg version="1.1" id="Capa_1" xmlns="http://www.w3.org/2000/svg" xmlns:xlink="http://www.w3.org/1999/xlink" x="0px" y="0px"
	 width="13.875px" height="17px" viewBox="0 0 13.875 17" enable-background="new 0 0 13.875 17" xml:space="preserve">
<path fill="none" stroke="#FFFFFF" stroke-linecap="round" stroke-linejoin="round" stroke-miterlimit="10" d="M6.976,8.578h0.1
	c0.898-0.01,1.628-0.322,2.168-0.924c1.188-1.326,1.004-3.61,0.982-3.828c-0.068-1.636-0.838-2.422-1.476-2.79
	C8.277,0.76,7.723,0.61,7.103,0.595L7.05,0.594c-0.34-0.002-1.01,0.05-1.652,0.412C4.751,1.368,3.961,2.147,3.876,3.794
	c-0.022,0.218-0.23,2.5,0.944,3.838C5.352,8.24,6.078,8.559,6.976,8.578z"/>
<path fill="none" stroke="#FFFFFF" stroke-linecap="round" stroke-linejoin="round" stroke-miterlimit="10" d="M4.689,9.607
	c-0.012,0.009-1.159,0.804-2.55,1.152c-0.012,0.002-0.021,0.006-0.031,0.008c-1.333,0.453-1.378,1.873-1.397,2.479
	c-0.001,0.026-0.001,0.052-0.004,0.076v0.01c-0.005,0.159-0.011,0.979,0.15,1.392c0.03,0.079,0.086,0.146,0.159,0.192
	c0.092,0.063,2.293,1.478,5.986,1.489c3.689,0.013,5.902-1.389,5.995-1.445c0.069-0.046,0.13-0.113,0.159-0.191
	c0.154-0.408,0.154-1.229,0.152-1.389v-0.009c0-0.024-0.004-0.049-0.002-0.077c-0.017-0.605-0.053-2.027-1.383-2.486
	c-0.008-0.005-0.021-0.007-0.029-0.011c-1.383-0.356-2.531-1.16-2.543-1.169"/>
</svg>
